Coordinates
version=1
nRows=19
nColumns=24
inDegrees=yes

Units are S.I. units (second, meters, Newtons, ...)
Angles are in degrees.

endheader
time	pelvis_tilt	pelvis_list	pelvis_rotation	pelvis_tx	pelvis_ty	pelvis_tz	hip_flexion_r	hip_adduction_r	hip_rotation_r	knee_angle_r	ankle_angle_r	subtalar_angle_r	mtp_angle_r	hip_flexion_l	hip_adduction_l	hip_rotation_l	knee_angle_l	ankle_angle_l	subtalar_angle_l	mtp_angle_l	lumbar_extension	lumbar_bending	lumbar_rotation
      4.65000000	     14.96584164	      1.35058990	     -3.06130595	      0.64728671	      0.94883749	      0.04273637	    -19.60303509	     -6.67148368	     -2.83128449	    -37.92482142	     17.62707467	     21.07073132	     42.39847859	     -0.96500706	      2.28754232	    -10.36307871	    -11.87929616	      4.09238609	     13.47836079	     23.29716158	    -24.18774667	     -0.69663753	      3.36633388
      4.65500000	     14.96345214	      1.40755129	     -3.03848640	      0.65191119	      0.94951045	      0.04183862	    -18.96960488	     -6.93205277	     -2.95403242	    -39.32416245	     16.22451277	     21.04149125	     46.21334197	     -1.24392862	      2.37350517	    -10.58118644	    -12.00302795	      4.77963984	     14.17524266	     18.93555090	    -24.17422374	     -0.81573245	      3.32024659
      4.66000000	     14.98913279	      1.51636477	     -3.01688270	      0.65650775	      0.95020290	      0.04095083	    -18.35344989	     -7.25221728	     -3.08296228	    -40.74395148	     15.14677106	     21.22319342	     46.13280490	     -1.59734918	      2.53077809	    -10.76121621	    -11.98005611	      5.00155680	     14.58108297	     18.86059621	    -24.19228124	     -0.99113581	      3.21554364
      4.66500000	     14.97345591	      1.56820957	     -3.02312671	      0.66103417	      0.95084648	      0.04019436	    -17.66216285	     -7.50028308	     -3.13681452	    -42.16012811	     14.21250427	     21.28439961	     45.16281597	     -1.89367476	      2.60580557	    -11.03642155	    -12.03506740	      5.72938321	     15.35539600	     13.93716213	    -24.17340220	     -1.11941019	      3.19927476
      4.67000000	     15.00782220	      1.66537751	     -2.99898481	      0.66558611	      0.95156610	      0.03939410	    -17.04305697	     -7.79194445	     -3.26728048	    -43.50138679	     13.30282656	     21.18905346	     45.12633223	     -2.30112572	      2.75433268	    -11.21239541	    -11.91669936	      5.91722337	     15.74626650	     13.93202001	    -24.20371434	     -1.28546873	      3.08670425
      4.67500000	     15.03386644	      1.74103176	     -2.99971440	      0.67008452	      0.95226393	      0.03866756	    -16.39440879	     -8.05666459	     -3.36027149	    -44.81516600	     12.51137265	     20.92253484	     45.03756435	     -2.71440370	      2.88157164	    -11.41537422	    -11.76693584	      6.12214121	     16.14126647	     13.89285926	    -24.23012845	     -1.43656318	      3.02136406
      4.68000000	     15.05810989	      1.80275676	     -2.99965843	      0.67455365	      0.95297534	      0.03799897	    -15.74207577	     -8.29360150	     -3.45466808	    -46.07362145	     11.84113884	     20.49885458	     44.88532824	     -3.14265084	      2.99582679	    -11.60863135	    -11.57908798	      6.30842272	     16.51146775	     13.82791956	    -24.25732416	     -1.57654268	      2.95026653
      4.68500000	     15.05899586	      1.81425142	     -3.02499195	      0.67898427	      0.95365417	      0.03744225	    -15.05148995	     -8.45920187	     -3.49755746	    -47.28604702	     11.35225670	     19.85291302	     44.51751489	     -3.57042552	      3.05373791	    -11.82060216	    -11.34350907	      6.54137838	     16.94572368	     13.63927512	    -24.26343727	     -1.67543554	      2.96564712
      4.69000000	     15.10441752	      1.85754384	     -3.03521829	      0.68339054	      0.95436675	      0.03686031	    -14.40942041	     -8.66828774	     -3.59224766	    -48.48169305	     11.21006067	     19.52082380	     40.22753296	     -4.03687578	      3.15049508	    -12.03679608	    -11.14092586	      6.95120596	     17.45455208	     10.77971044	    -24.31952183	     -1.80044875	      2.89002780
      4.69500000	     15.14675939	      1.88466623	     -3.03437166	      0.68778740	      0.95508746	      0.03628118	    -13.77534466	     -8.84455007	     -3.72817325	    -49.55858464	     10.93890016	     18.66690700	     40.09328475	     -4.54225331	      3.24660895	    -12.15999890	    -10.81700929	      7.06601910	     17.71482068	     10.68629373	    -24.37421729	     -1.90239275	      2.82444115
      4.70000000	     15.18888575	      1.87998757	     -3.04778660	      0.69213408	      0.95580764	      0.03574933	    -13.13391471	     -8.97660249	     -3.84101861	    -50.56790154	     10.76619512	     17.71844419	     39.80609273	     -5.05328990	      3.31141636	    -12.30291008	    -10.48069346	      7.18631776	     17.98266821	     10.55167137	    -24.43469497	     -1.97269774	      2.78695047
      4.70500000	     15.25263293	      1.91397390	     -3.05025834	      0.69643512	      0.95651697	      0.03520755	    -12.50989125	     -9.15846896	     -4.02027864	    -51.53191917	     10.69740236	     16.77907428	     39.54184031	     -5.57977039	      3.42272648	    -12.41442493	    -10.14772642	      7.26172303	     18.20223262	     10.46283948	    -24.52328023	     -2.08191288	      2.68621848
      4.71000000	     15.29581217	      1.86107720	     -3.10511814	      0.70076440	      0.95722829	      0.03480810	    -11.85691305	     -9.23434767	     -4.10364730	    -52.44467614	     10.99940882	     16.06473243	     34.86646252	     -6.11531364	      3.43820362	    -12.64291728	     -9.78203872	      7.55085646	     18.63780280	      8.43553818	    -24.58461746	     -2.11715985	      2.72533377
      4.71500000	     15.33479323	      1.81695487	     -3.07579140	      0.70503593	      0.95791990	      0.03425039	    -11.23149607	     -9.29932846	     -4.31313334	    -53.22116559	     11.11085526	     14.95663649	     34.71610906	     -6.64506295	      3.47604554	    -12.64977121	     -9.38095948	      7.62321339	     18.70897531	      8.34354066	    -24.65230426	     -2.12099338	      2.64741265
      4.72000000	     15.39562513	      1.80552214	     -3.07341497	      0.70927768	      0.95857404	      0.03371236	    -10.61397963	     -9.42020945	     -4.54256372	    -53.95655710	     11.33374243	     13.98498364	     34.57542077	     -7.19450306	      3.55361913	    -12.70206141	     -8.98313665	      7.69068767	     18.84673866	      8.29687685	    -24.74512907	     -2.16608078	      2.58947161
      4.72500000	     15.45122294	      1.66842055	     -3.12223991	      0.71349596	      0.95930525	      0.03339117	     -9.99181973	     -9.35669486	     -4.61844866	    -54.59203641	     11.73712535	     13.11955715	     31.39465980	     -7.76140763	      3.48769793	    -12.88068743	     -8.56238783	      7.84100076	     19.16207668	      6.93162204	    -24.83789833	     -2.10632455	      2.62397061
      4.73000000	     15.49232452	      1.60997251	     -3.09351813	      0.71770772	      0.95993865	      0.03284885	     -9.37124165	     -9.40053736	     -4.87743180	    -55.15110123	     11.99076441	     12.18109738	     31.29795935	     -8.29247412	      3.51664350	    -12.87432522	     -8.15654217	      7.92290741	     19.18125194	      6.88891956	    -24.91391067	     -2.08503626	      2.54247415
      4.73500000	     15.53985732	      1.47707826	     -3.10239268	      0.72183611	      0.96060484	      0.03240459	     -8.74708299	     -9.33761176	     -5.04109386	    -55.61976131	     12.21963756	     11.27586287	     31.08828085	     -8.84381282	      3.46760547	    -12.88591576	     -7.72276425	      7.97839037	     19.24098830	      6.81993524	    -25.00964799	     -1.99827954	      2.54325204
      4.74000000	     15.58359802	      1.37001371	     -3.09720839	      0.72601903	      0.96122540	      0.03195504	     -8.14037438	     -9.30638398	     -5.26047059	    -56.00911516	     12.61081390	     10.55042123	     30.91547840	     -9.38248147	      3.44236087	    -12.92878622	     -7.30997049	      8.02053878	     19.30914536	      6.77234821	    -25.09324571	     -1.93259506	      2.51619458
